<mxfile host="app.diagrams.net" agent="Mozilla/5.0 (Windows NT 10.0; Win64; x64; rv:136.0) Gecko/20100101 Firefox/136.0" version="26.0.16">
  <diagram name="Page-1" id="c4lqMwQ3vkYad3cmoi9H">
    <mxGraphModel dx="2074" dy="1142" grid="1" gridSize="10" guides="1" tooltips="1" connect="1" arrows="1" fold="1" page="1" pageScale="1" pageWidth="850" pageHeight="1100" math="0" shadow="0">
      <root>
        <mxCell id="0" />
        <mxCell id="1" parent="0" />
        <mxCell id="2ukugjxsL1UWlYhTPSf9-1" value="DB" style="shape=cylinder3;whiteSpace=wrap;html=1;boundedLbl=1;backgroundOutline=1;size=15;" vertex="1" parent="1">
          <mxGeometry x="300" y="360" width="60" height="80" as="geometry" />
        </mxCell>
        <mxCell id="2ukugjxsL1UWlYhTPSf9-2" value="Web api" style="rounded=1;whiteSpace=wrap;html=1;" vertex="1" parent="1">
          <mxGeometry x="270" y="560" width="120" height="60" as="geometry" />
        </mxCell>
        <mxCell id="2ukugjxsL1UWlYhTPSf9-3" value="&lt;div&gt;Server vpn N&lt;/div&gt;" style="rounded=0;whiteSpace=wrap;html=1;" vertex="1" parent="1">
          <mxGeometry x="500" y="680" width="120" height="60" as="geometry" />
        </mxCell>
        <mxCell id="2ukugjxsL1UWlYhTPSf9-4" value="Server vpn 1" style="rounded=0;whiteSpace=wrap;html=1;" vertex="1" parent="1">
          <mxGeometry x="500" y="400" width="120" height="60" as="geometry" />
        </mxCell>
        <mxCell id="2ukugjxsL1UWlYhTPSf9-5" value="Server vpn 2" style="rounded=0;whiteSpace=wrap;html=1;" vertex="1" parent="1">
          <mxGeometry x="500" y="520" width="120" height="60" as="geometry" />
        </mxCell>
        <mxCell id="2ukugjxsL1UWlYhTPSf9-6" value="&lt;b&gt;&lt;font style=&quot;font-size: 18px;&quot;&gt;...&lt;/font&gt;&lt;/b&gt;" style="text;html=1;align=center;verticalAlign=middle;resizable=0;points=[];autosize=1;strokeColor=none;fillColor=none;" vertex="1" parent="1">
          <mxGeometry x="540" y="603" width="40" height="40" as="geometry" />
        </mxCell>
        <mxCell id="2ukugjxsL1UWlYhTPSf9-7" value="Mobile 1" style="whiteSpace=wrap;html=1;aspect=fixed;" vertex="1" parent="1">
          <mxGeometry x="60" y="400" width="80" height="80" as="geometry" />
        </mxCell>
        <mxCell id="2ukugjxsL1UWlYhTPSf9-8" value="&lt;div&gt;Mobile 2&lt;/div&gt;" style="whiteSpace=wrap;html=1;aspect=fixed;" vertex="1" parent="1">
          <mxGeometry x="60" y="523" width="80" height="80" as="geometry" />
        </mxCell>
        <mxCell id="2ukugjxsL1UWlYhTPSf9-9" value="&lt;div&gt;Mobile N&lt;/div&gt;" style="whiteSpace=wrap;html=1;aspect=fixed;" vertex="1" parent="1">
          <mxGeometry x="60" y="680" width="80" height="80" as="geometry" />
        </mxCell>
        <mxCell id="2ukugjxsL1UWlYhTPSf9-10" value="&lt;b&gt;&lt;font style=&quot;font-size: 18px;&quot;&gt;...&lt;/font&gt;&lt;/b&gt;" style="text;html=1;align=center;verticalAlign=middle;resizable=0;points=[];autosize=1;strokeColor=none;fillColor=none;" vertex="1" parent="1">
          <mxGeometry x="80" y="620" width="40" height="40" as="geometry" />
        </mxCell>
        <mxCell id="2ukugjxsL1UWlYhTPSf9-11" value="" style="endArrow=classic;startArrow=classic;html=1;rounded=0;exitX=1;exitY=0;exitDx=0;exitDy=0;entryX=0;entryY=0.5;entryDx=0;entryDy=0;" edge="1" parent="1" source="2ukugjxsL1UWlYhTPSf9-2" target="2ukugjxsL1UWlYhTPSf9-4">
          <mxGeometry width="50" height="50" relative="1" as="geometry">
            <mxPoint x="400" y="600" as="sourcePoint" />
            <mxPoint x="450" y="550" as="targetPoint" />
          </mxGeometry>
        </mxCell>
        <mxCell id="2ukugjxsL1UWlYhTPSf9-12" value="" style="endArrow=classic;startArrow=classic;html=1;rounded=0;exitX=1;exitY=0.5;exitDx=0;exitDy=0;entryX=0;entryY=0.5;entryDx=0;entryDy=0;" edge="1" parent="1" source="2ukugjxsL1UWlYhTPSf9-2" target="2ukugjxsL1UWlYhTPSf9-5">
          <mxGeometry width="50" height="50" relative="1" as="geometry">
            <mxPoint x="400" y="600" as="sourcePoint" />
            <mxPoint x="450" y="550" as="targetPoint" />
          </mxGeometry>
        </mxCell>
        <mxCell id="2ukugjxsL1UWlYhTPSf9-13" value="" style="endArrow=classic;startArrow=classic;html=1;rounded=0;entryX=0;entryY=0.5;entryDx=0;entryDy=0;exitX=1;exitY=1;exitDx=0;exitDy=0;" edge="1" parent="1" source="2ukugjxsL1UWlYhTPSf9-2" target="2ukugjxsL1UWlYhTPSf9-3">
          <mxGeometry width="50" height="50" relative="1" as="geometry">
            <mxPoint x="400" y="600" as="sourcePoint" />
            <mxPoint x="450" y="550" as="targetPoint" />
          </mxGeometry>
        </mxCell>
        <mxCell id="2ukugjxsL1UWlYhTPSf9-14" value="" style="endArrow=classic;startArrow=classic;html=1;rounded=0;entryX=1;entryY=0.5;entryDx=0;entryDy=0;exitX=0;exitY=0;exitDx=0;exitDy=0;" edge="1" parent="1" source="2ukugjxsL1UWlYhTPSf9-2" target="2ukugjxsL1UWlYhTPSf9-7">
          <mxGeometry width="50" height="50" relative="1" as="geometry">
            <mxPoint x="400" y="600" as="sourcePoint" />
            <mxPoint x="450" y="550" as="targetPoint" />
          </mxGeometry>
        </mxCell>
        <mxCell id="2ukugjxsL1UWlYhTPSf9-15" value="" style="endArrow=classic;startArrow=classic;html=1;rounded=0;exitX=1;exitY=0.5;exitDx=0;exitDy=0;entryX=0;entryY=0.5;entryDx=0;entryDy=0;" edge="1" parent="1" source="2ukugjxsL1UWlYhTPSf9-8" target="2ukugjxsL1UWlYhTPSf9-2">
          <mxGeometry width="50" height="50" relative="1" as="geometry">
            <mxPoint x="400" y="600" as="sourcePoint" />
            <mxPoint x="450" y="550" as="targetPoint" />
          </mxGeometry>
        </mxCell>
        <mxCell id="2ukugjxsL1UWlYhTPSf9-16" value="" style="endArrow=classic;startArrow=classic;html=1;rounded=0;exitX=1;exitY=0.5;exitDx=0;exitDy=0;entryX=0;entryY=1;entryDx=0;entryDy=0;" edge="1" parent="1" source="2ukugjxsL1UWlYhTPSf9-9" target="2ukugjxsL1UWlYhTPSf9-2">
          <mxGeometry width="50" height="50" relative="1" as="geometry">
            <mxPoint x="400" y="600" as="sourcePoint" />
            <mxPoint x="450" y="550" as="targetPoint" />
          </mxGeometry>
        </mxCell>
        <mxCell id="2ukugjxsL1UWlYhTPSf9-18" value="" style="endArrow=classic;startArrow=classic;html=1;rounded=0;entryX=0.5;entryY=1;entryDx=0;entryDy=0;entryPerimeter=0;exitX=0.5;exitY=0;exitDx=0;exitDy=0;" edge="1" parent="1" source="2ukugjxsL1UWlYhTPSf9-2" target="2ukugjxsL1UWlYhTPSf9-1">
          <mxGeometry width="50" height="50" relative="1" as="geometry">
            <mxPoint x="400" y="600" as="sourcePoint" />
            <mxPoint x="450" y="550" as="targetPoint" />
          </mxGeometry>
        </mxCell>
      </root>
    </mxGraphModel>
  </diagram>
</mxfile>
